<svg width="160" height="46" viewBox="0 0 160 46" fill="none" xmlns="http://www.w3.org/2000/svg">
<path d="M31.25 45.25C28.625 45.25 26.2708 44.6875 24.1875 43.5625C22.1042 42.3958 20.4583 40.7917 19.25 38.75C18.0417 36.7083 17.4375 34.3958 17.4375 31.8125V12.6875C17.4375 12.0208 17.2708 11.4167 16.9375 10.875C16.6042 10.3333 16.1667 9.89583 15.625 9.5625C15.0833 9.22917 14.4792 9.0625 13.8125 9.0625C13.1458 9.0625 12.5417 9.22917 12 9.5625C11.4583 9.89583 11.0208 10.3333 10.6875 10.875C10.3958 11.4167 10.25 12.0208 10.25 12.6875V44.5H8.75443e-08V13.4375C8.75443e-08 10.8125 0.583333 8.5 1.75 6.5C2.95833 4.5 4.60417 2.91667 6.6875 1.75C8.8125 0.583332 11.1875 -7.7486e-07 13.8125 -7.7486e-07C16.4792 -7.7486e-07 18.8542 0.583332 20.9375 1.75C23.0208 2.91667 24.6667 4.5 25.875 6.5C27.0833 8.5 27.6875 10.8125 27.6875 13.4375V32.5625C27.6875 33.2292 27.8542 33.8542 28.1875 34.4375C28.5208 34.9792 28.9375 35.4167 29.4375 35.75C29.9792 36.0417 30.5625 36.1875 31.1875 36.1875C31.8542 36.1875 32.4583 36.0417 33 35.75C33.5833 35.4167 34.0417 34.9792 34.375 34.4375C34.7083 33.8542 34.875 33.2292 34.875 32.5625V0.749997H45.0625V31.8125C45.0625 34.3958 44.4583 36.7083 43.25 38.75C42.0417 40.7917 40.3958 42.3958 38.3125 43.5625C36.2292 44.6875 33.875 45.25 31.25 45.25ZM64.0049 44.5C61.5466 44.5 59.3174 43.9375 57.3174 42.8125C55.3174 41.6458 53.7132 40.1042 52.5049 38.1875C51.3382 36.2292 50.7549 34.0208 50.7549 31.5625C50.7549 29.7292 51.1507 28.0208 51.9424 26.4375C52.7757 24.8125 53.8799 23.4167 55.2549 22.25C53.9215 21.125 52.859 19.7917 52.0674 18.25C51.3174 16.7083 50.9424 15.0833 50.9424 13.375C50.9424 10.9583 51.5257 8.8125 52.6924 6.9375C53.859 5.02083 55.4215 3.52083 57.3799 2.4375C59.3382 1.3125 61.5049 0.749997 63.8799 0.749997H82.3174V9.5H65.5049C64.7132 9.5 63.9841 9.6875 63.3174 10.0625C62.6507 10.4375 62.1091 10.9375 61.6924 11.5625C61.3174 12.1875 61.1299 12.9167 61.1299 13.75C61.1299 14.5417 61.3174 15.2708 61.6924 15.9375C62.1091 16.5625 62.6507 17.0625 63.3174 17.4375C63.9841 17.7708 64.7132 17.9375 65.5049 17.9375H80.1924V26.6875H65.8174C64.9424 26.6875 64.1507 26.8958 63.4424 27.3125C62.7341 27.7292 62.1716 28.2708 61.7549 28.9375C61.3382 29.6042 61.1299 30.375 61.1299 31.25C61.1299 32.0833 61.3382 32.8542 61.7549 33.5625C62.1716 34.2292 62.7341 34.75 63.4424 35.125C64.1507 35.5 64.9424 35.6875 65.8174 35.6875H82.3174V44.5H64.0049ZM88.8223 44.5V35.75H107.51C108.343 35.75 109.093 35.5417 109.76 35.125C110.426 34.7083 110.947 34.1667 111.322 33.5C111.739 32.8333 111.947 32.1042 111.947 31.3125C111.947 30.4792 111.739 29.7292 111.322 29.0625C110.947 28.3958 110.426 27.8542 109.76 27.4375C109.093 27.0208 108.343 26.8125 107.51 26.8125H100.76C98.2181 26.8125 95.9056 26.3125 93.8223 25.3125C91.7389 24.3125 90.0723 22.8542 88.8223 20.9375C87.6139 18.9792 87.0098 16.6458 87.0098 13.9375C87.0098 11.2708 87.5931 8.95833 88.7598 7C89.9264 5.04167 91.5098 3.52083 93.5098 2.4375C95.5098 1.3125 97.7181 0.749997 100.135 0.749997H119.447V9.5H101.322C100.572 9.5 99.8848 9.6875 99.2598 10.0625C98.6348 10.4375 98.1556 10.9375 97.8223 11.5625C97.4889 12.1875 97.3223 12.875 97.3223 13.625C97.3223 14.375 97.4889 15.0625 97.8223 15.6875C98.1556 16.2708 98.6348 16.75 99.2598 17.125C99.8848 17.5 100.572 17.6875 101.322 17.6875H108.385C111.176 17.6875 113.593 18.2292 115.635 19.3125C117.718 20.3542 119.322 21.8333 120.447 23.75C121.614 25.625 122.197 27.8333 122.197 30.375C122.197 33.375 121.593 35.9375 120.385 38.0625C119.218 40.1458 117.635 41.75 115.635 42.875C113.635 43.9583 111.426 44.5 109.01 44.5H88.8223ZM150.501 44.5C147.834 44.5 145.48 43.9167 143.438 42.75C141.438 41.5417 139.855 39.9375 138.688 37.9375C137.563 35.9375 137.001 33.7083 137.001 31.25V9.5H125.126V0.749997H159.313V9.5H147.501V32.1875C147.501 33.1458 147.834 33.9792 148.501 34.6875C149.168 35.3958 150.001 35.75 151.001 35.75H154.438V44.5H150.501Z" fill="#F15A5A"/>
</svg>
